<svg width="238" height="301" viewBox="0 0 238 301" fill="none" xmlns="http://www.w3.org/2000/svg">
<path d="M229.798 20.8696C200.365 5.38184 135.521 0.96873 119.518 0.095677L117.723 0L115.928 0.095677C99.9071 0.96873 36.9298 5.38184 7.49017 20.8696C7.49017 20.8696 -43.3069 237.494 119.703 301C282.713 237.494 229.798 20.8696 229.798 20.8696Z" fill="#0B1C2B"/>
<path d="M221.387 30.7123C194.179 16.4086 134.258 12.3184 119.476 11.5171L117.801 11.4214L116.125 11.5171C101.343 12.3184 43.1395 16.4086 15.9552 30.7123C15.9552 30.7123 -30.9772 230.881 119.649 289.567C270.275 230.881 221.387 30.7123 221.387 30.7123Z" fill="#FFC425"/>
<path d="M119.613 41.5478V41.5537L119.619 41.482L119.613 41.5478Z" fill="#005596"/>
<path d="M119.613 41.5478V41.5537L119.619 41.482L119.613 41.5478Z" fill="white"/>
<path d="M213.304 40.1545C188.256 26.9989 133.056 23.2196 119.44 22.4781L117.896 22.4004L116.359 22.4781C102.731 23.2196 49.1459 26.9869 24.0794 40.1545C24.0794 40.1545 -19.1439 224.542 119.595 278.588C258.328 224.542 213.304 40.1545 213.304 40.1545Z" fill="#0B1C2B"/>
<path d="M50.462 46.0446C50.462 46.0446 -10.1283 170.963 107.684 257.838L119.428 42.2175L81.5169 198.841C81.5169 198.841 32.1437 145.908 50.462 46.0446Z" fill="white"/>
<path d="M188.399 46.0446C206.718 145.908 157.339 198.841 157.339 198.841L119.434 42.2175L131.207 257.838C248.99 170.963 188.399 46.0446 188.399 46.0446Z" fill="white"/>
<path d="M177.828 275.747V276.345H176.231V280.848H175.585V276.345H173.988V275.747H177.828Z" fill="#00325C"/>
<path d="M178.409 275.747H179.324L180.682 280.071L182.034 275.747H182.943V280.866H182.345V277.84C182.345 277.739 182.345 277.565 182.345 277.326C182.345 277.087 182.345 276.824 182.345 276.549L180.987 280.866H180.353L178.989 276.549V276.704C178.989 276.83 178.989 277.021 178.989 277.302C178.989 277.583 178.989 277.745 178.989 277.864V280.89H178.391L178.409 275.747Z" fill="#00325C"/>
</svg>
